:SAMPLES-PER-SECOND 30
:FULLY-SPECIFIED
:DEGREES
439
root  -6.42471 40.5861 3.02534 161.204 -86.8407 -158.734
RightUpLeg  -3.64627 -4.7942 -0.443468
RightLeg  3.51504 -41.9002 -2.44101
RightFoot  3.21917 -0.646017 5.22567
RightToes  -1.33073e-015 0 -3.6325e-017
Spine  10.0557 1.32927 0.997494
Spine1  -13.8329 1.29905 1.04535
HEad  4.36212 5.43029 -4.47624
LeftShoulder1  -0.0588795 5.29914 6.19897
LeftArm  -67.7712 -19.2193 -12.0359
LeftForeArm  -10.3116 -73.1539 -45.7045
LeftHand  -0.598999 2.87205 27.2843
RightShoulder  0.0677757 -2.56273 -1.49507
RightArm  -71.9924 10.9953 6.8129
RightForeArm  -9.84692 72.1183 41.8485
RightHand  -1.84081 2.29447 -27.5357
LeftUpLeg  -2.26236 7.03636 0.560943
LeftLeg  1.18001 38.3784 1.18257
LeftFoot  -0.0729327 0.545678 -5.52772
LeftToes  -4.0021e-011 8.38769e-011 -3.99229e-011
440
root  -6.40941 40.5614 3.08625 161.002 -86.9344 -159.033
RightUpLeg  -3.76007 -5.17127 -0.766913
RightLeg  5.34683 -41.5181 -3.41841
RightFoot  2.70871 -0.705084 5.86807
RightToes  -1.33073e-015 0 -3.6325e-017
Spine  10.9911 1.27165 1.07329
Spine1  -14.1551 1.2678 0.861866
HEad  3.74976 5.32647 -4.34452
LeftShoulder1  -0.0559668 4.84143 5.34958
LeftArm  -67.9057 -18.1191 -12.8945
LeftForeArm  -3.77664 -74.8395 -53.1751
LeftHand  -0.391882 3.847 29.5458
RightShoulder  0.0918737 -2.33077 -0.719097
RightArm  -71.5908 10.2092 7.07511
RightForeArm  -8.37785 72.9094 44.5135
RightHand  -1.8009 1.97109 -28.12
LeftUpLeg  -2.09724 7.01604 0.506995
LeftLeg  2.33629 37.628 1.87444
LeftFoot  -0.905981 0.573483 -6.22286
LeftToes  -4.0021e-011 8.38769e-011 -3.99229e-011
441
root  -6.36674 40.4598 3.14342 165.409 -86.8702 -163.993
RightUpLeg  -4.62977 -6.57006 -1.39393
RightLeg  8.96358 -39.5662 -5.18153
RightFoot  1.65002 -0.721229 6.42858
RightToes  -1.33073e-015 0 -3.6325e-017
Spine  11.8093 1.35774 0.851362
Spine1  -13.5276 1.35076 0.740484
HEad  1.32458 5.16085 -4.57702
LeftShoulder1  -0.055888 4.75402 4.51965
LeftArm  -69.0351 -17.1488 -13.8977
LeftForeArm  9.84391 -76.8792 -69.0585
LeftHand  0.244715 6.13081 34.9783
RightShoulder  0.0991299 -2.30153 -0.248498
RightArm  -71.7582 9.34031 7.26204
RightForeArm  -4.0624 74.6858 52.43
RightHand  -1.81278 1.21315 -31.3108
LeftUpLeg  -2.69562 7.29057 0.362862
LeftLeg  5.31714 37.3661 3.34518
LeftFoot  -2.35638 0.550353 -6.81544
LeftToes  -4.0021e-011 8.38769e-011 -3.99229e-011
442
root  -6.28465 40.2414 3.1899 170.428 -86.9429 -170.145
RightUpLeg  -5.75898 -10.644 -2.00023
RightLeg  13.9132 -34.81 -7.69988
RightFoot  -0.248912 -0.644128 6.60223
RightToes  -1.33073e-015 0 -3.6325e-017
Spine  13.1692 1.4024 0.518954
Spine1  -12.2429 1.37842 0.615871
HEad  -3.66336 4.91583 -5.05474
LeftShoulder1  -0.0554138 4.6025 3.89707
LeftArm  -71.377 -16.0592 -14.3793
LeftForeArm  36.0042 -77.5999 -96.7891
LeftHand  1.07075 8.24146 41.1063
RightShoulder  0.107793 -2.2158 -0.10293
RightArm  -72.8237 7.80734 7.41087
RightForeArm  16.1791 77.2333 74.067
RightHand  -2.06763 1.04559 -36.2832
LeftUpLeg  -3.75833 8.31771 0.395786
LeftLeg  10.7348 36.5144 5.85437
LeftFoot  -4.08727 0.480531 -7.19184
LeftToes  -4.0021e-011 8.38769e-011 -3.99229e-011
443
root  -6.15533 39.9199 3.23053 175.041 -87.2618 -176.368
RightUpLeg  -6.855 -16.2537 -2.48767
RightLeg  18.9608 -28.7347 -10.2527
RightFoot  -2.29807 -0.514115 6.28887
RightToes  -1.33073e-015 0 -3.6325e-017
Spine  15.4732 1.26456 0.506836
Spine1  -11.3207 1.2854 0.0771789
HEad  -10.3503 4.49914 -5.53253
LeftShoulder1  -0.042276 4.33677 3.88143
LeftArm  -73.9538 -15.0708 -14.3671
LeftForeArm  67.2669 -74.9637 -125.789
LeftHand  1.45835 8.94681 44.3852
RightShoulder  0.118124 -2.07983 -0.186575
RightArm  -74.5032 5.73796 7.67103
RightForeArm  58.5838 76.9064 111.794
RightHand  -2.46196 1.62662 -39.491
LeftUpLeg  -4.91154 11.9134 0.60054
LeftLeg  16.868 31.441 8.30197
LeftFoot  -6.06493 0.396474 -7.82681
LeftToes  -4.0021e-011 8.38769e-011 -3.99229e-011
444
root  -6.02158 39.6273 3.24891 -179.896 -87.6627 177.478
RightUpLeg  -7.83909 -18.5725 -3.09071
RightLeg  22.8875 -26.2704 -11.8152
RightFoot  -3.49983 -0.413873 5.69093
RightToes  -1.33073e-015 0 -3.6325e-017
Spine  17.5335 0.992665 0.943022
Spine1  -10.8024 1.16213 -0.866663
HEad  -16.6405 3.82136 -5.87126
LeftShoulder1  -0.0372398 4.34156 4.5433
LeftArm  -75.024 -14.7258 -14.5807
LeftForeArm  91.9512 -69.5189 -144.576
LeftHand  1.35497 8.6814 44.4556
RightShoulder  0.109764 -2.12596 -0.583668
RightArm  -75.3545 3.71207 8.34239
RightForeArm  95.7439 71.3159 141.039
RightHand  -2.60325 2.07462 -39.2124
LeftUpLeg  -6.64263 18.9346 0.882776
LeftLeg  21.7039 21.4821 8.9308
LeftFoot  -7.66589 0.32544 -8.76424
LeftToes  -4.0021e-011 8.38769e-011 -3.99229e-011
445
root  -5.94542 39.5153 3.2113 -177.13 -88.1338 174.79
RightUpLeg  -8.64794 -19.2709 -3.07937
RightLeg  24.1908 -25.9521 -12.3198
RightFoot  -3.68549 -0.377823 5.26922
RightToes  -1.33073e-015 0 -3.6325e-017
Spine  18.1015 0.713938 1.70739
Spine1  -10.1531 1.09966 -1.8226
HEad  -20.8813 2.87165 -6.0624
LeftShoulder1  -0.0385179 4.52187 5.36308
LeftArm  -73.1583 -15.1441 -15.5045
LeftForeArm  108.626 -62.7206 -155.315
LeftHand  1.21492 8.39034 43.7847
RightShoulder  0.0928697 -2.28199 -0.985631
RightArm  -73.5425 1.99378 9.21371
RightForeArm  116.333 62.8664 155.714
RightHand  -2.38508 1.72872 -37.7974
LeftUpLeg  -9.61139 24.4038 1.86587
LeftLeg  26.7491 13.2064 7.52925
LeftFoot  -6.91083 0.456784 -10.6162
LeftToes  -4.0021e-011 8.38769e-011 -3.99229e-011
446
root  -5.96125 39.5486 3.12893 169.82 -88.7815 -171.423
RightUpLeg  -9.00256 -19.1981 -2.40469
RightLeg  23.5796 -26.9039 -12.3364
RightFoot  -3.45811 -0.3882 5.28664
RightToes  -1.33073e-015 0 -3.6325e-017
Spine  17.5779 0.465895 2.70605
Spine1  -9.69326 1.07014 -2.57558
HEad  -22.795 1.76001 -6.02787
LeftShoulder1  -0.0256316 4.23882 5.68061
LeftArm  -67.5519 -15.9654 -17.2386
LeftForeArm  119.431 -55.6478 -161.648
LeftHand  1.14762 8.2514 43.3889
RightShoulder  0.108748 -2.139 -0.602553
RightArm  -67.9821 0.64532 9.89028
RightForeArm  128.554 53.9221 163.251
RightHand  -2.05259 0.899663 -36.886
LeftUpLeg  -13.3934 28.7992 3.74504
LeftLeg  32.556 5.60104 4.15908
LeftFoot  -3.2272 1.1344 -15.3056
LeftToes  -4.0021e-011 8.38769e-011 -3.99229e-011
447
root  -6.06588 39.6026 3.08261 120.04 -89.1892 -121.148
RightUpLeg  -8.62003 -17.4177 -1.74979
RightLeg  22.852 -29.6253 -12.4316
RightFoot  -3.05553 -0.429256 5.63097
RightToes  -1.33073e-015 0 -3.6325e-017
Spine  17.2372 0.167078 3.94932
Spine1  -10.1705 0.96522 -3.03243
HEad  -22.8826 0.822337 -5.70735
LeftShoulder1  0.00684779 3.35499 5.03849
LeftArm  -57.8343 -16.9535 -19.9023
LeftForeArm  128.873 -49.6488 -165.426
LeftHand  1.04322 8.07448 42.1831
RightShoulder  0.176554 -1.58163 0.808949
RightArm  -58.6344 0.154552 11.0534
RightForeArm  140.215 47.0273 167.218
RightHand  -1.70666 0.203052 -34.5751
LeftUpLeg  -16.218 31.1419 6.74277
LeftLeg  37.8473 -2.57024 -1.76455
LeftFoot  0.326423 2.35548 -22.9124
LeftToes  -4.0021e-011 8.38769e-011 -3.99229e-011
448
root  -6.23408 39.7026 3.10704 80.9969 -89.1454 -82.0128
RightUpLeg  -7.51504 -13.4268 -1.93632
RightLeg  22.1268 -34.1945 -12.5209
RightFoot  -2.19342 -0.488349 5.91259
RightToes  -1.33073e-015 0 -3.6325e-017
Spine  17.3764 -0.0892986 4.45798
Spine1  -11.2132 0.801155 -3.36875
HEad  -21.6716 0.438097 -5.25332
LeftShoulder1  0.0560971 2.47966 3.38249
LeftArm  -44.6266 -17.6025 -23.7256
LeftForeArm  139.534 -45.9555 -167.578
LeftHand  0.881866 7.81683 39.7103
RightShoulder  0.263214 -1.01304 2.45193
RightArm  -46.35 0.699297 14.4686
RightForeArm  152.249 43.889 169.078
RightHand  -1.33171 -0.32101 -29.9873
LeftUpLeg  -16.584 30.8696 10.0487
LeftLeg  40.0781 -9.94244 -8.39802
LeftFoot  0.308114 2.98517 -28.827
LeftToes  -4.0021e-011 8.38769e-011 -3.99229e-011
